<svg xmlns="http://www.w3.org/2000/svg" xml:space="preserve" x="0" y="0" version="1.1"
	viewBox="0 0 124.6 134" class="text-purple-500" style="color:#642cc2">
	<path fill="currentColor" d="M111.7 101.4c-3.1 0-5.5 2.5-5.5 5.5 0 3.1-2.5 5.5-5.5 5.5S95 110 95 107V78.8c.7-1.4 1.1-2.9 1.1-4.6V41.9c0-19.2-15.6-34.8-34.7-34.8S26.6 22.7 26.6 41.9v32.3c0 2.2.7 4.3 1.9 6V107c0 3.1-2.5 5.5-5.6 5.5s-5.5-2.5-5.5-5.5-2.5-5.5-5.5-5.5c-3.1 0-5.5 2.5-5.5 5.5 0 8.8 6.9 15.9 15.5 16.5.4.1.7.1 1.1.1s.8 0 1.1-.1c8.6-.6 15.5-7.7 15.5-16.5V84.8s-.3-4.7 3.7-4.7 3.7 4.7 3.7 4.7v22c0 3.1 2.5 5.5 5.5 5.5s5.5-2.5 5.5-5.5v-22s-.8-4.7 3.7-4.7 3.7 4.7 3.7 4.7v22c0 3.1 2.5 5.5 5.5 5.5 3.1 0 5.5-2.5 5.5-5.5v-22s-.3-4.7 3.7-4.7 3.7 4.7 3.7 4.7V107c0 8.8 6.9 15.9 15.5 16.5.4.1.7.1 1.1.1s.8 0 1.1-.1c8.7-.6 15.5-7.7 15.5-16.5.2-3.1-2.3-5.6-5.3-5.6M43.2 70c-3.1 0-5.5-3.1-5.5-6.9s2.5-6.9 5.5-6.9 5.5 3.1 5.5 6.9c.1 3.8-2.4 6.9-5.5 6.9m37 0c-3.1 0-5.5-3.1-5.5-6.9s2.5-6.9 5.5-6.9 5.5 3.1 5.5 6.9c.1 3.8-2.4 6.9-5.5 6.9">

	</path>
</svg>