<?xml version="1.0" encoding="UTF-8" standalone="no"?>
<!DOCTYPE svg PUBLIC "-//W3C//DTD SVG 1.1//EN" "http://www.w3.org/Graphics/SVG/1.1/DTD/svg11.dtd">
<svg xmlns="http://www.w3.org/2000/svg" version="1.1" viewBox="0.00 0.00 683.00 384.00">
<g stroke-width="2.00" fill="none" stroke-linecap="butt">
<path stroke="#2176a8" vector-effect="non-scaling-stroke" d="
  M 278.53 98.01
  Q 274.85 104.93 274.33 112.58"
/>
<path stroke="#6271ad" vector-effect="non-scaling-stroke" d="
  M 374.19 135.84
  Q 373.35 134.25 374.03 132.54"
/>
<path stroke="#8954a8" vector-effect="non-scaling-stroke" d="
  M 533.00 157.49
  L 529.17 179.81"
/>
<path stroke="#8954a8" vector-effect="non-scaling-stroke" d="
  M 521.66 226.89
  Q 528.32 237.61 537.36 246.47"
/>
<path stroke="#255a8f" vector-effect="non-scaling-stroke" d="
  M 384.77 185.37
  L 384.55 188.81"
/>
<path stroke="#203b7d" vector-effect="non-scaling-stroke" d="
  M 231.01 289.47
  Q 230.39 289.14 229.53 289.35"
/>
</g>
<path fill="#1b5f9d" d="
  M 278.53 98.01
  Q 274.85 104.93 274.33 112.58
  L 272.84 115.47
  A 0.85 0.83 14.3 0 1 272.06 115.92
  C 269.51 115.84 264.29 115.43 262.63 117.10
  Q 255.42 124.36 254.74 125.03
  Q 250.27 129.43 251.51 136.15
  A 0.62 0.62 0.0 0 1 250.76 136.87
  Q 249.53 136.57 247.61 135.92
  Q 242.85 134.30 238.22 134.01
  A 0.69 0.69 0.0 0 1 237.57 133.32
  L 237.57 120.47
  A 1.10 1.10 0.0 0 1 238.10 119.53
  Q 238.44 119.33 239.88 118.59
  C 248.44 114.16 243.77 100.62 233.49 103.21
  C 228.80 104.39 226.36 110.40 228.55 114.66
  Q 230.14 117.76 233.58 119.04
  A 1.07 1.05 10.4 0 1 234.27 120.03
  L 234.27 133.12
  A 0.69 0.68 1.2 0 1 233.55 133.80
  Q 226.18 133.53 218.88 135.39
  A 0.57 0.56 80.4 0 1 218.18 134.89
  C 217.91 131.60 218.44 129.37 215.63 126.61
  Q 211.41 122.46 207.51 118.48
  A 2.15 2.12 -67.6 0 1 206.90 116.98
  L 206.90 91.88
  A 0.89 0.89 0.0 0 1 207.53 91.03
  Q 225.45 85.64 244.49 88.06
  C 255.85 89.50 268.13 92.49 278.53 98.01
  Z"
/>
<path fill="#1d508f" d="
  M 202.52 92.18
  A 0.65 0.64 81.4 0 1 203.35 92.80
  Q 203.27 101.69 203.49 116.00
  Q 203.52 117.93 203.98 119.10
  A 2.51 2.47 -80.6 0 0 204.64 120.04
  Q 209.17 124.08 212.52 127.68
  C 214.89 130.21 215.14 132.39 214.99 135.64
  A 1.42 1.42 0.0 0 1 214.02 136.93
  Q 205.64 139.72 198.17 145.87
  A 0.49 0.49 0.0 0 1 197.37 145.49
  L 197.37 94.62
  A 1.08 1.08 0.0 0 1 198.12 93.59
  L 202.52 92.18
  Z"
/>
<path fill="#23266b" d="
  M 178.89 178.65
  Q 176.89 177.96 176.58 176.16
  Q 175.93 172.36 176.39 161.57
  A 2.78 2.77 68.6 0 1 177.20 159.71
  L 187.44 149.47
  A 2.43 2.42 67.3 0 0 188.15 147.73
  L 187.47 99.15
  A 1.54 1.53 77.0 0 1 188.34 97.75
  L 193.29 95.33
  A 0.50 0.50 0.0 0 1 194.02 95.77
  L 194.62 148.08
  A 1.83 1.83 0.0 0 1 194.48 148.83
  Q 194.37 149.08 189.98 154.46
  Q 181.44 164.93 179.57 178.23
  A 0.52 0.52 0.0 0 1 178.89 178.65
  Z"
/>
<path fill="#278db3" d="
  M 274.33 112.58
  Q 274.85 104.93 278.53 98.01
  Q 285.24 101.59 291.59 105.91
  Q 306.11 115.78 315.80 130.91
  A 0.50 0.50 0.0 0 1 315.38 131.67
  L 280.25 131.67
  A 1.88 1.88 0.0 0 0 278.92 132.22
  L 265.94 145.19
  A 0.74 0.74 0.0 0 1 265.00 145.29
  L 254.94 138.75
  A 0.86 0.84 -76.7 0 1 254.56 138.12
  C 254.34 136.03 253.88 130.71 255.62 128.65
  Q 256.70 127.38 264.03 120.27
  A 2.37 2.37 0.0 0 1 265.68 119.60
  L 272.41 119.60
  A 0.99 0.99 0.0 0 1 273.26 120.08
  Q 273.56 120.57 273.97 121.38
  C 278.03 129.51 290.65 125.00 289.21 116.06
  C 288.62 112.35 285.93 109.85 282.24 109.25
  Q 277.60 108.49 274.33 112.58
  Z"
/>
<path fill="#23266b" d="
  M 183.24 100.21
  A 0.61 0.61 0.0 0 1 184.15 100.74
  L 184.15 147.62
  A 1.77 1.76 68.4 0 1 183.60 148.90
  Q 179.31 153.00 175.38 157.12
  Q 173.74 158.84 173.00 160.32
  A 3.17 3.00 -33.1 0 0 172.67 161.70
  Q 172.66 166.93 172.68 172.50
  C 172.69 177.71 174.13 179.64 178.48 182.39
  A 1.13 1.11 -74.7 0 1 179.00 183.32
  L 179.09 190.24
  A 0.62 0.62 0.0 0 1 178.47 190.87
  L 172.71 190.87
  A 0.93 0.92 -7.2 0 1 171.81 190.18
  Q 170.91 186.77 169.53 185.35
  C 160.63 176.19 147.17 194.29 162.47 199.25
  A 1.24 1.24 0.0 0 1 163.29 200.75
  Q 162.47 203.82 164.73 206.27
  Q 172.52 214.74 174.80 217.34
  A 0.60 0.59 45.4 0 1 174.80 218.13
  L 163.34 230.86
  A 2.17 2.15 4.0 0 1 162.83 231.30
  C 159.15 233.62 156.42 236.85 157.60 241.40
  C 159.72 249.51 171.64 249.97 173.77 241.86
  C 175.10 236.83 172.06 233.67 168.20 231.20
  A 0.64 0.64 0.0 0 1 168.07 230.23
  L 177.13 220.15
  A 1.38 1.35 -68.5 0 1 178.14 219.70
  L 187.76 219.70
  A 0.65 0.65 0.0 0 1 188.22 219.89
  L 195.74 227.41
  A 0.69 0.69 0.0 0 1 195.74 228.39
  L 178.89 245.24
  A 3.29 3.27 -22.6 0 0 177.94 247.52
  C 177.91 251.66 178.58 257.64 176.02 259.75
  Q 170.68 264.16 168.45 266.86
  A 0.58 0.57 39.0 0 1 167.64 266.94
  C 154.29 256.51 144.34 241.03 137.88 225.65
  A 0.40 0.40 0.0 0 1 138.25 225.10
  L 150.52 225.10
  A 0.86 0.86 0.0 0 0 151.38 224.24
  Q 151.37 202.93 151.27 181.52
  C 151.25 177.95 155.80 174.48 158.41 171.91
  C 161.19 169.16 160.46 165.06 160.14 160.16
  A 0.78 0.77 -10.4 0 1 160.69 159.37
  Q 169.47 156.71 166.04 146.19
  A 1.04 1.03 60.5 0 1 166.34 145.08
  Q 171.14 140.88 176.93 134.68
  C 178.19 133.33 178.67 132.38 178.71 130.43
  Q 178.91 117.95 178.44 104.35
  A 2.27 2.26 -16.1 0 1 179.56 102.33
  L 183.24 100.21
  Z"
/>
<path fill="#23266b" d="
  M 175.14 106.07
  L 175.14 131.45
  A 1.94 1.93 -22.4 0 1 174.56 132.83
  L 164.04 143.36
  A 0.83 0.81 31.8 0 1 163.19 143.55
  Q 156.27 141.11 152.65 145.70
  C 149.06 150.27 151.08 156.53 156.31 158.90
  A 1.05 1.04 10.5 0 1 156.92 159.78
  C 157.16 163.92 157.81 168.37 154.52 171.46
  C 152.26 173.58 149.38 176.15 148.32 178.80
  A 2.83 2.77 57.8 0 0 148.07 179.96
  L 147.82 221.79
  A 0.21 0.20 -0.0 0 1 147.61 221.99
  L 138.03 221.99
  A 1.73 1.71 -8.8 0 1 136.39 220.80
  L 135.07 216.65
  A 2.69 2.68 60.0 0 1 135.82 213.84
  C 138.68 211.25 143.27 207.92 143.28 204.26
  Q 143.31 176.01 142.89 161.21
  C 142.76 156.65 140.93 155.49 138.79 152.32
  A 1.08 1.07 39.5 0 1 138.69 151.31
  Q 150.11 123.27 174.65 105.82
  A 0.31 0.31 0.0 0 1 175.14 106.07
  Z"
/>
<circle fill="#1b5f9d" cx="235.98" cy="111.16" r="4.68"/>
<path fill="#278db3" d="
  M 273.17 152.72
  A 0.31 0.31 0.0 0 1 272.73 152.72
  L 267.92 147.91
  A 0.46 0.46 0.0 0 1 267.92 147.25
  L 279.43 135.73
  A 3.27 3.20 21.2 0 1 281.62 134.79
  Q 284.77 134.70 316.51 134.85
  Q 318.93 134.87 320.84 133.07
  Q 328.67 125.71 335.81 117.81
  C 337.83 115.57 342.45 116.06 345.05 116.11
  A 1.09 1.09 0.0 0 0 346.11 115.37
  C 349.09 106.75 361.35 106.21 363.96 115.23
  C 365.69 121.18 362.64 126.58 356.21 127.25
  C 350.98 127.80 348.98 125.04 346.36 121.30
  A 1.34 1.31 80.3 0 0 345.64 120.78
  Q 341.14 119.49 338.16 121.38
  Q 336.85 122.20 332.58 126.77
  Q 326.93 132.83 324.30 135.53
  Q 322.36 137.52 320.01 137.52
  A 0.59 0.59 0.0 0 0 319.50 138.41
  L 320.94 140.90
  A 0.74 0.73 -14.9 0 1 320.30 142.00
  L 285.23 142.00
  A 3.24 3.20 22.3 0 0 282.95 142.94
  L 273.17 152.72
  Z
  M 360.24 118.04
  A 4.96 4.96 0.0 0 0 355.28 113.08
  A 4.96 4.96 0.0 0 0 350.32 118.04
  A 4.96 4.96 0.0 0 0 355.28 123.00
  A 4.96 4.96 0.0 0 0 360.24 118.04
  Z"
/>
<circle fill="#278db3" cx="281.09" cy="117.39" r="4.75"/>
<ellipse fill="#23266b" cx="0.00" cy="0.00" transform="translate(445.94,133.91) rotate(-166.4)" rx="14.85" ry="14.52"/>
<path fill="#9d55a6" d="
  M 374.19 135.84
  Q 373.35 134.25 374.03 132.54
  Q 374.96 132.06 376.34 129.36
  C 379.70 122.78 390.85 123.81 392.58 131.68
  C 394.62 140.94 383.83 147.22 377.49 140.18
  Q 377.03 139.67 376.06 137.84
  Q 375.15 136.14 374.19 135.84
  Z
  M 389.00 134.25
  A 5.15 5.15 0.0 0 0 383.85 129.10
  A 5.15 5.15 0.0 0 0 378.70 134.25
  A 5.15 5.15 0.0 0 0 383.85 139.40
  A 5.15 5.15 0.0 0 0 389.00 134.25
  Z"
/>
<path fill="#278db3" d="
  M 374.03 132.54
  Q 373.35 134.25 374.19 135.84
  L 356.38 136.33
  A 3.33 3.30 19.7 0 0 353.98 137.45
  Q 349.80 142.18 345.76 147.02
  Q 344.01 149.13 341.50 149.21
  C 336.04 149.38 330.85 149.39 325.20 150.33
  Q 322.63 150.76 319.01 150.79
  Q 306.98 150.89 295.52 150.60
  A 2.75 2.73 23.1 0 0 293.51 151.40
  L 281.27 163.64
  A 0.94 0.94 0.0 0 1 279.79 163.45
  L 275.28 155.64
  A 0.73 0.72 -37.8 0 1 275.40 154.76
  L 283.98 146.18
  A 3.69 3.69 0.0 0 1 286.58 145.11
  L 339.71 145.11
  A 4.77 4.75 -69.0 0 0 343.25 143.53
  L 352.68 133.04
  A 2.32 2.32 0.0 0 1 354.42 132.28
  L 374.03 132.54
  Z"
/>
<ellipse fill="#23266b" cx="0.00" cy="0.00" transform="translate(158.88,150.93) rotate(-115.1)" rx="4.80" ry="4.57"/>
<path fill="#278db3" d="
  M 374.13 154.38
  Q 374.58 153.68 375.50 151.71
  C 379.14 143.90 391.98 147.13 392.95 155.43
  C 393.69 161.73 390.00 166.23 383.48 166.26
  Q 377.67 166.30 374.85 160.00
  A 2.12 2.11 -12.5 0 0 372.89 158.76
  L 306.47 159.68
  A 3.39 3.38 20.4 0 0 303.99 160.81
  L 295.36 170.40
  A 3.29 3.28 20.5 0 1 292.96 171.49
  L 284.05 171.61
  A 0.97 0.96 80.6 0 1 283.12 170.94
  L 282.11 167.79
  A 0.93 0.91 -31.6 0 1 282.34 166.86
  L 294.03 155.17
  A 4.28 4.27 21.9 0 1 296.98 153.92
  Q 303.94 153.80 320.08 154.15
  C 325.33 154.26 331.12 155.01 336.75 154.96
  Q 361.31 154.75 373.25 154.85
  A 1.03 1.03 0.0 0 0 374.13 154.38
  Z
  M 388.47 156.80
  A 5.03 5.03 0.0 0 0 383.44 151.77
  A 5.03 5.03 0.0 0 0 378.41 156.80
  A 5.03 5.03 0.0 0 0 383.44 161.83
  A 5.03 5.03 0.0 0 0 388.47 156.80
  Z"
/>
<path fill="#23266b" d="
  M 137.61 156.28
  Q 139.50 158.08 139.52 159.83
  Q 139.92 195.05 139.82 204.02
  A 2.43 2.38 66.6 0 1 139.21 205.60
  L 134.61 210.71
  A 0.51 0.50 59.5 0 1 133.74 210.48
  Q 127.95 184.98 135.39 160.38
  Q 136.43 156.94 136.77 156.39
  A 0.54 0.54 0.0 0 1 137.61 156.28
  Z"
/>
<path fill="#7552aa" d="
  M 533.00 157.49
  L 529.17 179.81
  C 512.95 174.33 502.39 184.79 501.63 200.24
  C 501.22 208.56 502.49 216.33 508.63 222.38
  Q 513.57 227.23 521.66 226.89
  Q 528.32 237.61 537.36 246.47
  C 503.70 257.16 471.18 233.14 474.55 197.28
  C 476.34 178.33 490.25 161.80 508.66 157.61
  Q 519.80 155.08 533.00 157.49
  Z"
/>
<path fill="#9d55a6" d="
  M 537.36 246.47
  Q 528.32 237.61 521.66 226.89
  C 532.23 226.90 539.32 218.74 540.48 208.74
  C 541.80 197.40 540.39 185.36 529.17 179.81
  L 533.00 157.49
  Q 546.21 160.24 554.56 169.20
  C 577.03 193.30 570.01 235.15 537.36 246.47
  Z"
/>
<rect fill="#23266b" x="-12.51" y="-44.05" transform="translate(445.66,203.72) rotate(-0.1)" width="25.02" height="88.10" rx="0.47"/>
<path fill="#278db3" d="
  M 284.68 174.91
  L 293.55 174.76
  A 4.56 4.55 21.5 0 0 296.71 173.39
  Q 297.48 172.60 303.38 165.89
  Q 304.67 164.43 306.46 163.46
  A 2.43 2.40 30.3 0 1 307.55 163.18
  L 329.19 162.88
  A 1.32 1.32 0.0 0 1 330.53 164.28
  Q 330.39 166.72 332.05 166.65
  Q 334.61 166.54 346.50 166.67
  Q 348.63 166.69 349.71 167.50
  A 0.37 0.28 79.1 0 1 349.80 167.58
  L 357.15 176.05
  A 3.29 3.28 69.2 0 0 359.68 177.19
  L 364.96 177.11
  A 1.86 1.85 85.1 0 1 366.81 178.68
  L 366.99 179.84
  A 1.33 1.33 0.0 0 1 365.68 181.38
  L 357.87 181.38
  A 0.99 0.99 0.0 0 1 357.17 181.09
  L 348.15 172.07
  A 5.11 5.06 68.5 0 0 344.76 170.58
  L 333.61 170.13
  A 3.39 2.99 48.6 0 1 333.05 170.06
  C 326.88 168.71 321.36 169.28 315.78 169.20
  C 314.05 169.17 313.01 170.74 311.95 172.03
  Q 308.09 176.72 307.17 178.02
  A 0.84 0.84 0.0 0 1 306.33 178.36
  Q 298.36 176.89 295.68 184.26
  A 1.00 1.00 0.0 0 1 294.76 184.91
  L 286.21 185.03
  A 0.48 0.48 0.0 0 1 285.74 184.63
  L 284.29 175.38
  A 0.41 0.40 85.0 0 1 284.68 174.91
  Z"
/>
<path fill="#278db3" d="
  M 384.77 185.37
  L 384.55 188.81
  L 341.83 189.26
  A 1.83 1.82 -71.6 0 0 340.40 189.98
  L 333.89 198.51
  A 2.55 2.44 -17.2 0 0 333.53 199.16
  L 332.86 201.05
  A 1.54 1.53 -79.9 0 1 331.42 202.06
  L 323.20 202.06
  A 3.17 3.14 66.1 0 1 321.06 201.22
  Q 317.64 198.08 312.45 192.93
  Q 310.41 190.91 311.92 188.79
  A 1.14 1.14 0.0 0 1 312.84 188.32
  L 320.84 188.32
  A 0.78 0.77 75.7 0 1 321.52 188.73
  Q 323.54 192.47 324.87 193.41
  Q 331.03 197.75 336.38 191.47
  C 342.47 184.33 330.39 173.49 323.61 181.08
  C 322.60 182.22 322.18 183.89 321.66 185.11
  A 0.77 0.77 0.0 0 1 320.95 185.58
  L 312.72 185.58
  A 0.52 0.51 -7.2 0 1 312.22 185.20
  Q 311.55 182.63 309.38 180.14
  A 0.78 0.78 0.0 0 1 309.39 179.11
  L 314.71 173.19
  A 3.03 3.02 20.9 0 1 316.96 172.19
  L 330.25 172.19
  A 1.39 1.39 0.0 0 1 331.64 173.61
  Q 331.59 175.77 332.12 176.76
  A 1.49 1.48 -6.8 0 0 333.08 177.51
  Q 337.65 178.65 340.90 184.35
  A 1.29 1.27 75.0 0 0 342.01 185.00
  L 384.77 185.37
  Z"
/>
<path fill="#23266b" d="
  M 384.55 188.81
  L 384.77 185.37
  Q 388.81 177.12 395.98 178.83
  C 400.49 179.90 403.54 183.56 403.11 188.13
  C 402.39 195.81 393.85 198.91 387.99 194.26
  Q 386.42 193.01 384.55 188.81
  Z
  M 388.8256 186.5001
  A 5.29 5.06 -168.0 0 0 392.9480 192.5494
  A 5.29 5.06 -168.0 0 0 399.1744 188.6999
  A 5.29 5.06 -168.0 0 0 395.0520 182.6506
  A 5.29 5.06 -168.0 0 0 388.8256 186.5001
  Z"
/>
<ellipse fill="#217aa8" cx="0.00" cy="0.00" transform="translate(303.79,186.53) rotate(-24.2)" rx="4.96" ry="4.75"/>
<circle fill="#278db3" cx="329.68" cy="186.91" r="4.77"/>
<ellipse fill="#23266b" cx="0.00" cy="0.00" transform="translate(163.93,191.01) rotate(-146.3)" rx="4.94" ry="4.66"/>
<path fill="#217aa8" d="
  M 285.66 188.83
  A 0.87 0.86 -0.7 0 1 286.51 187.97
  L 294.50 187.86
  A 1.17 1.17 0.0 0 1 295.61 188.62
  Q 298.79 197.03 308.05 194.19
  A 1.54 1.54 0.0 0 1 309.60 194.57
  L 320.14 205.11
  A 2.69 2.69 0.0 0 0 322.10 205.91
  L 343.86 205.61
  A 4.07 4.06 21.8 0 0 346.67 204.41
  Q 349.68 201.37 354.99 195.51
  C 356.98 193.32 363.89 194.08 366.69 194.45
  A 0.74 0.73 -89.1 0 1 367.33 195.12
  Q 367.52 197.15 366.20 197.96
  A 0.97 0.96 -62.2 0 1 365.72 198.11
  L 359.01 198.46
  A 3.68 3.67 19.4 0 0 356.46 199.68
  L 347.70 209.41
  A 2.48 2.45 -70.6 0 1 346.01 210.23
  C 340.09 210.60 334.39 210.09 328.59 210.33
  Q 321.90 210.60 316.74 210.61
  Q 314.61 210.62 313.55 209.33
  Q 311.69 207.08 308.94 204.66
  Q 307.59 203.47 303.83 203.53
  Q 294.10 203.69 284.39 203.48
  A 0.78 0.77 9.8 0 1 283.67 202.47
  Q 285.61 196.56 285.66 188.83
  Z"
/>
<path fill="#23266b" d="
  M 179.63 194.48
  Q 180.85 205.72 185.88 215.01
  A 0.58 0.58 0.0 0 1 185.37 215.86
  L 178.57 215.86
  A 1.35 1.35 0.0 0 1 177.59 215.44
  Q 170.14 207.66 166.93 203.46
  Q 165.91 202.13 166.11 199.93
  A 1.31 1.30 -12.4 0 1 166.77 198.91
  Q 170.10 197.01 171.45 194.53
  A 1.31 1.30 14.4 0 1 172.59 193.86
  L 178.94 193.86
  A 0.70 0.69 86.8 0 1 179.63 194.48
  Z"
/>
<path fill="#217aa8" d="
  M 273.23 223.56
  A 0.74 0.73 41.3 0 1 273.16 222.59
  Q 278.54 215.32 282.16 207.16
  A 0.96 0.96 0.0 0 1 283.04 206.58
  L 305.54 206.58
  A 2.54 2.51 69.3 0 1 307.45 207.46
  L 312.15 212.88
  A 2.53 2.44 81.3 0 0 312.95 213.49
  Q 314.33 214.14 315.94 214.14
  Q 324.90 214.12 327.86 214.38
  A 0.94 0.94 0.0 0 1 328.69 215.53
  L 327.82 219.18
  A 0.53 0.52 6.9 0 0 328.33 219.83
  L 351.05 219.83
  A 0.97 0.97 0.0 0 0 351.97 219.16
  Q 354.03 212.67 360.76 212.51
  C 366.26 212.38 369.96 215.65 370.28 221.24
  C 370.91 232.43 354.29 234.14 352.08 224.11
  A 0.87 0.87 0.0 0 0 351.23 223.43
  L 328.55 223.43
  A 2.98 2.98 0.0 0 0 325.83 225.19
  L 321.34 235.18
  A 0.78 0.77 21.6 0 1 320.38 235.59
  Q 320.29 235.57 319.39 235.23
  Q 318.74 234.99 318.38 235.00
  Q 294.64 235.27 285.59 235.16
  A 1.92 1.89 67.6 0 1 284.27 234.60
  L 273.23 223.56
  Z
  M 291.68 222.72
  C 291.77 232.72 304.48 233.97 307.76 224.62
  A 0.97 0.96 -80.1 0 1 308.67 223.97
  Q 317.20 223.89 325.50 223.78
  Q 327.43 223.76 327.42 222.41
  Q 327.41 221.07 325.48 221.08
  Q 317.18 221.12 308.65 221.18
  A 0.97 0.96 79.2 0 1 307.73 220.56
  C 304.28 211.26 291.59 212.73 291.68 222.72
  Z
  M 366.05 221.53
  A 5.00 5.00 0.0 0 0 361.05 216.53
  A 5.00 5.00 0.0 0 0 356.05 221.53
  A 5.00 5.00 0.0 0 0 361.05 226.53
  A 5.00 5.00 0.0 0 0 366.05 221.53
  Z"
/>
<circle fill="#1b5f9d" cx="299.64" cy="222.48" r="4.71"/>
<circle fill="#1d508f" cx="400.15" cy="234.29" r="14.66"/>
<path fill="#217aa8" d="
  M 318.92 238.43
  Q 318.26 239.63 318.25 240.61
  A 0.54 0.54 0.0 0 0 318.80 241.16
  L 325.21 241.07
  A 3.99 3.96 -22.7 0 1 328.07 242.23
  L 339.14 253.30
  A 0.82 0.82 0.0 0 0 340.36 253.24
  C 343.75 248.99 349.49 246.69 354.37 249.86
  C 359.54 253.20 359.63 260.60 355.08 264.53
  Q 352.34 266.89 347.96 266.74
  C 343.04 266.56 340.94 263.37 339.54 259.05
  A 2.17 2.14 9.8 0 0 338.76 257.96
  Q 334.43 254.73 326.11 246.23
  Q 324.71 244.79 322.50 244.75
  Q 315.64 244.60 278.23 244.47
  A 1.55 1.52 66.7 0 1 277.16 244.03
  L 264.95 231.82
  A 0.35 0.35 0.0 0 1 264.95 231.33
  L 270.43 225.85
  A 0.42 0.42 0.0 0 1 271.02 225.85
  L 283.10 237.93
  A 2.17 2.15 -22.7 0 0 284.65 238.56
  L 318.70 238.08
  A 0.24 0.24 0.0 0 1 318.92 238.43
  Z
  M 354.02 257.52
  A 5.06 5.06 0.0 0 0 348.96 252.46
  A 5.06 5.06 0.0 0 0 343.90 257.52
  A 5.06 5.06 0.0 0 0 348.96 262.58
  A 5.06 5.06 0.0 0 0 354.02 257.52
  Z"
/>
<path fill="#23266b" d="
  M 170.87 268.21
  Q 173.70 265.69 177.86 262.11
  C 180.05 260.23 181.22 258.67 181.13 255.61
  Q 181.12 255.28 181.19 248.07
  A 2.07 2.05 68.0 0 1 181.79 246.64
  L 198.20 230.23
  A 0.44 0.44 0.0 0 1 198.75 230.17
  L 206.86 235.45
  A 0.79 0.79 0.0 0 1 207.04 236.62
  Q 206.16 237.66 199.04 245.12
  C 196.98 247.27 196.77 248.90 197.20 251.49
  A 0.87 0.86 77.5 0 1 196.59 252.46
  C 185.25 255.68 188.80 271.36 199.78 268.56
  C 207.46 266.61 207.93 256.87 201.34 252.96
  C 198.74 251.42 200.64 248.48 202.16 246.87
  Q 203.63 245.30 210.76 237.66
  A 0.88 0.87 -56.2 0 1 211.76 237.46
  L 219.84 241.09
  A 0.62 0.61 8.5 0 1 220.19 241.55
  Q 220.65 244.64 220.19 247.22
  A 2.64 2.58 -18.2 0 1 219.46 248.62
  L 212.55 255.53
  A 3.65 3.64 -22.6 0 0 211.48 258.11
  L 211.48 286.54
  A 0.55 0.55 0.0 0 1 210.84 287.08
  Q 188.48 283.23 170.90 269.20
  A 0.65 0.64 -47.1 0 1 170.87 268.21
  Z"
/>
<path fill="#1d508f" d="
  M 231.01 289.47
  Q 230.39 289.14 229.53 289.35
  L 215.17 287.84
  A 0.50 0.49 -87.5 0 1 214.72 287.34
  L 214.72 259.00
  A 2.97 2.97 0.0 0 1 215.59 256.90
  L 223.14 249.35
  A 0.73 0.72 67.8 0 0 223.35 248.84
  L 223.35 241.67
  A 0.37 0.36 -0.0 0 1 223.72 241.31
  L 229.78 241.31
  A 1.47 1.46 -0.0 0 1 231.25 242.77
  L 231.25 258.15
  A 0.87 0.86 75.0 0 1 230.82 258.90
  C 229.67 259.58 228.43 260.08 227.61 260.91
  Q 223.75 264.86 225.06 269.41
  C 227.36 277.43 238.22 277.27 240.86 269.60
  C 242.79 263.96 239.67 261.06 235.06 258.77
  A 0.87 0.86 -76.5 0 1 234.59 258.00
  L 234.59 242.20
  A 0.18 0.17 86.4 0 1 234.74 242.02
  L 243.16 240.70
  A 0.52 0.52 0.0 0 1 243.76 241.21
  L 243.76 246.39
  A 3.15 3.14 21.8 0 0 244.74 248.67
  L 252.04 255.61
  A 1.63 1.62 16.5 0 1 252.50 256.45
  Q 252.58 256.84 252.78 259.24
  C 253.07 262.63 257.04 264.86 260.04 265.26
  C 264.45 265.84 268.42 262.35 269.20 258.21
  C 269.91 254.47 267.41 250.51 263.62 249.28
  Q 257.92 247.43 254.21 252.71
  A 0.55 0.54 39.8 0 1 253.37 252.78
  L 247.72 247.13
  A 2.18 2.15 -67.8 0 1 247.09 245.60
  L 247.09 241.01
  A 0.84 0.83 76.9 0 1 247.55 240.26
  L 261.49 233.45
  A 0.70 0.70 0.0 0 1 262.28 233.58
  L 275.90 247.20
  A 1.98 1.97 -22.2 0 0 277.31 247.79
  L 312.12 247.79
  A 0.67 0.67 0.0 0 1 312.70 248.81
  Q 310.43 252.58 307.10 256.31
  Q 276.86 290.20 231.01 289.47
  Z"
/>
<ellipse fill="#23266b" cx="0.00" cy="0.00" transform="translate(165.68,239.66) rotate(-105.8)" rx="4.91" ry="4.69"/>
<circle fill="#1d508f" cx="261.00" cy="257.15" r="4.66"/>
<circle fill="#23266b" cx="197.71" cy="260.88" r="4.68"/>
<ellipse fill="#1d508f" cx="0.00" cy="0.00" transform="translate(232.99,267.06) rotate(-6.0)" rx="4.88" ry="4.73"/>
<path fill="#23266b" d="
  M 231.01 289.47
  L 229.53 289.35
  Q 230.39 289.14 231.01 289.47
  Z"
/>
</svg>
